<?xml version="1.0" encoding="UTF-8"?>
<svg width="13px" height="12px" viewBox="0 0 13 12" version="1.1" xmlns="http://www.w3.org/2000/svg" xmlns:xlink="http://www.w3.org/1999/xlink">
    <!-- Generator: Sketch 63 (92445) - https://sketch.com -->
    <title>分配</title>
    <desc>Created with Sketch.</desc>
    <g id="三级账号" stroke="none" stroke-width="1" fill="none" fill-rule="evenodd">
        <g id="自定义预设" transform="translate(-1792.000000, -313.000000)" fill-rule="nonzero">
            <g id="编组-4" transform="translate(1779.500000, 307.000000)">
                <rect id="outline备份-5" stroke="#2E008B" opacity="0.15" x="0.5" y="0.5" width="37" height="23" rx="4"></rect>
                <g id="分配" transform="translate(13.000000, 6.000000)" fill="#2E008B">
                    <path d="M9.63536876,7.33248728 C8.74190248,7.33248728 7.98057292,7.87360012 7.64080352,8.64122588 L4.31232879,6.83542142 C4.45704538,6.54598823 4.53884172,6.2250963 4.53884172,5.87903487 C4.53884172,5.75319463 4.51996564,5.63364586 4.50108956,5.51409876 L7.98687191,3.66424315 C8.38956018,4.12985167 8.97471859,4.43186892 9.62908371,4.43186892 C10.8308579,4.43186892 11.8124097,3.45031427 11.8124097,2.2485429 C11.8124097,1.04676874 10.8371471,0.0652168753 9.62908371,0.0652168753 C8.42730954,0.0652168753 7.44575768,1.04677152 7.44575768,2.2485429 C7.44575768,2.53168406 7.50238578,2.79594776 7.60305833,3.04762879 L4.24941549,4.82826515 C3.87818736,4.1613118 3.16718983,3.70828733 2.35552267,3.70828733 C1.15374851,3.70828733 0.172196645,4.68984198 0.172196645,5.89161335 C0.172196645,7.09338751 1.15375129,8.07493937 2.35552267,8.07493937 C2.95326373,8.07493937 3.48808454,7.83584239 3.88447799,7.44573817 L7.45833477,9.38996721 C7.45833477,9.43401125 7.44575074,9.48434746 7.44575074,9.5283915 C7.44575074,10.7301657 8.42730539,11.7117175 9.62907677,11.7117175 C10.8308509,11.7117175 11.8124097,10.7301629 11.8124097,9.5283915 C11.8124097,8.32661734 10.8434322,7.33248143 9.63536182,7.33248143 L9.63536876,7.33248728 Z M9.63536876,0.788790099 C10.4407467,0.788790099 11.0888198,1.44316358 11.0888198,2.2422453 C11.0888198,3.04762322 10.4344505,3.69569631 9.63536876,3.69569631 C9.12571606,3.69569631 8.67269019,3.4251392 8.41471853,3.02245093 C8.27000193,2.795938 8.18191357,2.53167431 8.18191357,2.24224111 C8.18191357,1.43686319 8.83628287,0.788790099 9.63536458,0.788790099 L9.63536876,0.788790099 Z M2.36180076,7.33248728 C1.55642283,7.33248728 0.90834974,6.67811798 0.90834974,5.87903627 C0.90834974,5.07365835 1.56271904,4.42558525 2.36180076,4.42558525 C3.16088665,4.42558525 3.81525177,5.07995455 3.81525177,5.87903627 C3.81525177,6.68441419 3.1671745,7.33248728 2.36180076,7.33248728 Z M9.63536876,10.9692643 C8.82999084,10.9692643 8.18191775,10.314895 8.18191775,9.5158133 C8.18191775,8.71043538 8.83628705,8.06236229 9.63536876,8.06236229 C10.4344547,8.06236229 11.0888198,8.71673159 11.0888198,9.5158133 C11.0951118,10.3211912 10.4407425,10.9692643 9.63536876,10.9692643 Z" id="形状"></path>
                </g>
            </g>
        </g>
    </g>
</svg>