<?xml version="1.0" encoding="UTF-8"?>
<svg width="12px" height="12px" viewBox="0 0 12 12" version="1.1" xmlns="http://www.w3.org/2000/svg" xmlns:xlink="http://www.w3.org/1999/xlink">
    <!-- Generator: Sketch 63 (92445) - https://sketch.com -->
    <title>删 除备份</title>
    <desc>Created with Sketch.</desc>
    <g id="三级账号" stroke="none" stroke-width="1" fill="none" fill-rule="evenodd">
        <g id="自定义预设" transform="translate(-1724.000000, -313.000000)" fill-rule="nonzero">
            <g id="编组" transform="translate(1711.000000, 307.000000)">
                <rect id="outline备份-3" stroke="#2E008B" opacity="0.15" x="0.5" y="0.5" width="37" height="23" rx="4"></rect>
                <g id="删-除备份" transform="translate(13.000000, 6.000000)" fill="#2E008B">
                    <path d="M10.7411092,2.05763944 L0.335816832,2.05763944 L0.33581682,2.05763944 C0.14900496,2.05627678 -0.00133696228,1.90283833 8.96692832e-06,1.71492427 C8.96692832e-06,1.71471077 8.96692832e-06,1.71449727 8.96692832e-06,1.71428378 L8.96692832e-06,1.71428224 C-0.000997855384,1.52650497 0.149147355,1.37326055 0.335818418,1.37155739 L10.7411107,1.37155739 L10.7411107,1.37155739 C10.9277818,1.37326168 11.0779264,1.52650618 11.076914,1.71428345 L11.076914,1.71428461 C11.0782715,1.90219868 10.9279395,2.05564646 10.7411276,2.05702157 C10.7411216,2.05702162 10.7411156,2.05702166 10.7411096,2.0570217 L10.7411092,2.05763944 Z M7.38378337,0.685464442 L3.69313058,0.685464442 L3.69313059,0.685464442 C3.50631873,0.684098665 3.35597921,0.530658222 3.35732751,0.34274416 C3.35732751,0.342742192 3.35732751,0.342740223 3.35732751,0.342738255 L3.35732751,0.342735747 C3.35630942,0.154953628 3.50645715,0.00170315963 3.69313302,0 L7.38563903,0 L7.38563902,0 C7.5723149,0.00170428533 7.72246187,0.154956049 7.72144214,0.342738168 L7.72144214,0.342738337 C7.72279363,0.530652399 7.5724557,0.684095335 7.38564504,0.685464442 C7.38564309,0.685464442 7.38564113,0.685464442 7.38563917,0.685464442 L7.38378595,0.685464442 L7.38378337,0.685464442 Z M4.02891795,9.60025169 L4.02891795,3.77130606 L4.02891795,3.77130356 C4.02789728,3.58352144 4.178045,3.43027097 4.36472088,3.42856781 L4.36472087,3.42856781 C4.55139675,3.4302721 4.70154372,3.58352386 4.70051482,3.77130598 L4.70051482,9.59963425 L4.70051483,9.59963442 C4.70187547,9.78754848 4.55153755,9.94099142 4.36472689,9.94236053 C4.36472493,9.94236053 4.36472298,9.94236053 4.36472102,9.94236053 L4.36472102,9.94236053 C4.17790916,9.94099502 4.02756965,9.78755458 4.02891795,9.59964052 C4.02891795,9.59963855 4.02891795,9.59963658 4.02891795,9.59963461 L4.02891795,9.60025169 Z M6.37947431,9.60025169 L6.37947431,3.77130606 L6.37947431,3.77130479 C6.3784522,3.58376114 6.52822841,3.43060872 6.71466361,3.42856784 L6.71466361,3.42856784 C6.90133948,3.43027212 7.05148646,3.58352388 7.05045756,3.771306 L7.05045756,9.59963428 L7.05045756,9.59963444 C7.05181821,9.78754851 6.90148028,9.94099144 6.71466963,9.94236055 C6.71466767,9.94236055 6.71466571,9.94236055 6.71466376,9.94236055 L6.71466374,9.94236055 C6.52809015,9.94065625 6.37812128,9.78731129 6.37947431,9.59963449 L6.37947431,9.60025169 Z M1.67836688,3.08645918 L1.67836687,3.08645918 C1.86504275,3.08816347 2.01518972,3.24141523 2.01416082,3.42919735 L2.01416082,10.6290714 L2.01416082,10.6290717 C2.01211036,11.0046311 2.31240178,11.3111271 2.68574872,11.3145359 L8.39116522,11.3145359 L8.39116524,11.3145359 C8.76478776,11.3118049 9.06546799,11.0049228 9.06275314,10.6290959 C9.06275308,10.6290879 9.06275303,10.6290799 9.06275297,10.6290719 L9.06275297,3.42856833 L9.06275296,3.42856679 C9.06173184,3.24078951 9.21187705,3.0875451 9.39854812,3.08584194 L9.39854812,3.08584194 C9.58521919,3.08754622 9.73536375,3.24079072 9.73434726,3.428568 L9.73434726,10.9711803 C9.73434726,11.5395054 9.28333556,12 8.72696022,12 L2.34995582,12 L2.34995588,12 C1.78952872,11.9959129 1.33850536,11.5356027 1.34254196,10.971869 C1.34254196,10.9716396 1.34254196,10.9714101 1.34254196,10.9711807 L1.34254196,3.42856844 L1.34254196,3.42856691 C1.34155328,3.24078963 1.49169849,3.08754521 1.67836955,3.08584194 L1.67836688,3.08645918 Z" id="形状"></path>
                </g>
            </g>
        </g>
    </g>
</svg>