<?xml version="1.0" encoding="UTF-8"?>
<svg width="13px" height="12px" viewBox="0 0 13 12" version="1.1" xmlns="http://www.w3.org/2000/svg" xmlns:xlink="http://www.w3.org/1999/xlink">
    <!-- Generator: Sketch 63 (92445) - https://sketch.com -->
    <title>编辑备份</title>
    <desc>Created with Sketch.</desc>
    <g id="三级账号" stroke="none" stroke-width="1" fill="none" fill-rule="evenodd">
        <g id="自定义预设" transform="translate(-1680.000000, -313.000000)" fill-rule="nonzero">
            <g id="编组" transform="translate(1667.500000, 307.000000)">
                <rect id="outline备份-2" stroke="#2E008B" opacity="0.15" x="0.5" y="0.5" width="37" height="23" rx="4"></rect>
                <g id="编辑备份" transform="translate(13.000000, 6.000000)" fill="#2E008B">
                    <path d="M10.9248896,5.31943345 C10.704546,5.31943345 10.5305958,5.49338361 10.5305958,5.71372719 L10.5305958,10.2829048 C10.5305958,10.6656047 10.2174796,10.990316 9.82318459,10.990316 L1.69377982,10.990316 C1.31107992,10.990316 0.986368565,10.6771998 0.986368565,10.2829048 L0.986368565,2.15348711 C0.986368565,1.77078721 1.29948479,1.44607586 1.69377982,1.44607586 L6.61086288,1.44607586 C6.83120646,1.44607586 7.00515662,1.27212569 7.00515662,1.05178212 C7.00515662,0.831438541 6.83120646,0.657481247 6.61086288,0.657481247 L1.69376693,0.657481247 L1.69376691,0.657481247 C0.876462954,0.654978402 0.21187183,1.31549883 0.209351025,2.13280923 C0.209351025,2.13583904 0.209351025,2.13886887 0.209351025,2.14189867 L0.209351025,10.2713034 L0.209351025,10.2713067 C0.206849961,11.0886107 0.867372465,11.7532018 1.684679,11.7557097 C1.68770881,11.7557097 1.69073863,11.7557097 1.69376844,11.7557097 L9.82317321,11.7557097 L9.82317327,11.7557097 C10.6404772,11.7582125 11.3050684,11.0976908 11.307582,10.2803817 C11.3075913,10.2773519 11.3075913,10.2743221 11.307582,10.2712923 L11.307582,5.70212756 C11.3191902,5.49337911 11.1452399,5.31942766 10.9248963,5.31942766 L10.9248896,5.31943345 Z M11.643896,0.344368286 C11.4119573,0.112429579 11.1568283,0.228405636 10.9364847,0.460331066 L5.47434672,5.92246906 L5.05686272,6.73424809 C5.01046969,6.86181889 5.13804062,6.97778193 5.26561116,6.94299654 L6.13537745,6.46752399 L11.5975154,1.005386 C11.8178461,0.77344729 11.8758334,0.576306865 11.6438952,0.344368157 L11.643896,0.344368286 Z" id="形状"></path>
                </g>
            </g>
        </g>
    </g>
</svg>